<svg xmlns="http://www.w3.org/2000/svg" width="138.808" height="46.193" viewBox="0 0 138.808 46.193">
  <g id="Calque_2" data-name="Calque 2" transform="translate(0 0)">
    <g id="Layer_1" data-name="Layer 1" transform="translate(0 0)">
      <path id="Path_244" data-name="Path 244" d="M14.971,46.193H34.608a4.938,4.938,0,0,0,4.326-2.546l10.038-18.2a4.872,4.872,0,0,0,0-4.709L38.934,2.546A4.938,4.938,0,0,0,34.608,0H14.971a4.941,4.941,0,0,0-4.33,2.546L.607,20.742a4.872,4.872,0,0,0,0,4.709l10.037,18.2a4.941,4.941,0,0,0,4.33,2.546M18.285,6.009H31.294A4.938,4.938,0,0,1,35.62,8.555l6.723,12.187a4.869,4.869,0,0,1,0,4.709L35.62,37.641a4.938,4.938,0,0,1-4.326,2.545H18.285a4.94,4.94,0,0,1-4.327-2.545L7.236,25.451a4.872,4.872,0,0,1,0-4.709L13.958,8.553a4.94,4.94,0,0,1,4.327-2.544" transform="translate(0 0)" fill="#1c5daa"/>
      <path id="Path_245" data-name="Path 245" d="M158.68,292.951a6.43,6.43,0,1,1,6.43,6.43,6.43,6.43,0,0,1-6.43-6.43" transform="translate(-149.268 -269.684)" fill="#161615"/>
      <path id="Path_246" data-name="Path 246" d="M460.81,296.89a6.43,6.43,0,1,1,6.431,6.43,6.43,6.43,0,0,1-6.431-6.43" transform="translate(-433.68 -273.392)" fill="#161615"/>
      <path id="Path_247" data-name="Path 247" d="M895.844,248.242c5.057,0,7.836,3.094,7.836,7.969,0,5.409-2.921,8.672-7.968,8.672H890.06V248.242Zm-2.373,13.969h2.2c2.945,0,4.5-2.207,4.5-5.949,0-3.093-1.391-5.306-4.472-5.306h-2.224Zm16.563-13.969v16.641h-3.392V248.242ZM927.1,264.883h-2.5a15.937,15.937,0,0,1-.253-1.932c-.856,1.661-2.526,2.174-4.611,2.174-4.353,0-6.647-3.624-6.647-8.47,0-4.777,2.7-8.636,7.609-8.636,3.963,0,6.016,2.213,6.424,5h-3.323a3.007,3.007,0,0,0-3.292-2.275c-2.9,0-3.927,2.766-3.927,5.937s1.112,5.748,3.921,5.748c2.506,0,3.231-1.747,3.231-3.884v-.078h-3.476V255.59h6.844Zm6.728-16.641v16.641h-3.393V248.242Z" transform="translate(-837.785 -233.466)" fill="#1c5daa"/>
      <path id="Path_248" data-name="Path 248" d="M1702.141,261.139H1694.9v4.479h7.989l-.408,2.782H1691.6V251.76h10.844v2.8h-7.538v3.77h7.236Zm7.107,7.262v-6.272a.944.944,0,0,0-.143-.538l-5.262-9.831h3.822c1.17,2.506,2.7,5.681,3.44,7.232,1.091-2.367,2.358-4.923,3.44-7.232h3.533l-5.3,9.76a.866.866,0,0,0-.137.511v6.37Zm20.938-7.262h-7.236v4.479h7.987l-.408,2.782h-10.886V251.76h10.845v2.8h-7.538v3.77h7.236Z" transform="translate(-1592.206 -236.984)" fill="#161615"/>
      <path id="Path_249" data-name="Path 249" d="M886.41,577.149a8.9,8.9,0,0,1,1.313-.1,2.753,2.753,0,0,1,1.937.593,2.226,2.226,0,0,1,.674,1.717,2.556,2.556,0,0,1-.685,1.861,2.988,2.988,0,0,1-2.117.689,9.94,9.94,0,0,1-1.121-.059Zm.617,4.228a3.879,3.879,0,0,0,.624.036,1.839,1.839,0,0,0,2.036-2.03,1.705,1.705,0,0,0-1.937-1.843,3.554,3.554,0,0,0-.724.063Z" transform="translate(-834.198 -543.08)" fill="#161615"/>
      <path id="Path_250" data-name="Path 250" d="M966.62,577.65v4.781H966V577.65Z" transform="translate(-909.09 -543.645)" fill="#161615"/>
      <path id="Path_251" data-name="Path 251" d="M993.793,581.447a4.445,4.445,0,0,1-1.468.262,2.243,2.243,0,0,1-2.454-2.41,2.4,2.4,0,0,1,2.589-2.469,2.923,2.923,0,0,1,1.192.22l-.149.5a2.482,2.482,0,0,0-1.057-.205,1.788,1.788,0,0,0-1.922,1.923,1.752,1.752,0,0,0,1.845,1.93,2.051,2.051,0,0,0,.823-.128v-1.424h-.972v-.5h1.575Z" transform="translate(-931.564 -542.873)" fill="#161615"/>
      <path id="Path_252" data-name="Path 252" d="M1072.478,577.65v4.781h-.618V577.65Z" transform="translate(-1008.714 -543.645)" fill="#161615"/>
      <path id="Path_253" data-name="Path 253" d="M1092.684,578.175h-1.454v-.525h3.54v.525h-1.461v4.256h-.625Z" transform="translate(-1026.952 -543.645)" fill="#161615"/>
      <path id="Path_254" data-name="Path 254" d="M1146.055,580.927l-.5,1.5h-.639l1.625-4.781h.744l1.632,4.781h-.66l-.511-1.5Zm1.567-.482-.467-1.377c-.107-.312-.178-.6-.249-.873h-.014c-.071.284-.149.574-.242.865l-.467,1.384Z" transform="translate(-1077.481 -543.645)" fill="#161615"/>
      <path id="Path_255" data-name="Path 255" d="M1224.19,577.65h.618v4.264h2.043v.518h-2.661Z" transform="translate(-1152.077 -543.645)" fill="#161615"/>
      <path id="Path_256" data-name="Path 256" d="M1293.453,578.175H1292v-.525h3.539v.525h-1.463v4.256h-.623Z" transform="translate(-1215.896 -543.645)" fill="#161615"/>
      <path id="Path_257" data-name="Path 257" d="M1361.208,577.65v2h2.313v-2h.624v4.781h-.624V580.19h-2.313v2.242h-.618V577.65Z" transform="translate(-1280.446 -543.645)" fill="#161615"/>
      <path id="Path_258" data-name="Path 258" d="M1439.2,577.65v4.781h-.618V577.65Z" transform="translate(-1353.829 -543.645)" fill="#161615"/>
      <path id="Path_259" data-name="Path 259" d="M1467.16,582.431V577.65h.674l1.532,2.419a13.479,13.479,0,0,1,.858,1.553l.014-.008c-.059-.638-.071-1.22-.071-1.965v-2h.581v4.781h-.624l-1.519-2.426a15.24,15.24,0,0,1-.894-1.6l-.021.007c.035.6.05,1.177.05,1.972v2.043Z" transform="translate(-1380.739 -543.645)" fill="#161615"/>
      <path id="Path_260" data-name="Path 260" d="M1544.983,581.447a4.44,4.44,0,0,1-1.468.262,2.244,2.244,0,0,1-2.455-2.41,2.4,2.4,0,0,1,2.589-2.469,2.92,2.92,0,0,1,1.192.22l-.149.5a2.483,2.483,0,0,0-1.057-.205,1.789,1.789,0,0,0-1.923,1.923,1.753,1.753,0,0,0,1.845,1.93,2.048,2.048,0,0,0,.823-.128v-1.424h-.972v-.5h1.574Z" transform="translate(-1450.287 -542.873)" fill="#161615"/>
      <path id="Path_261" data-name="Path 261" d="M1619.167,580.466a2.179,2.179,0,0,0,1.106.312c.632,0,1-.333,1-.815,0-.447-.256-.7-.9-.949-.781-.278-1.263-.681-1.263-1.355a1.377,1.377,0,0,1,1.547-1.3,2.174,2.174,0,0,1,1.057.234l-.17.5a1.908,1.908,0,0,0-.908-.227c-.653,0-.9.39-.9.716,0,.447.291.667.949.922.809.313,1.22.7,1.22,1.405,0,.737-.546,1.376-1.674,1.376a2.477,2.477,0,0,1-1.22-.3Z" transform="translate(-1523.641 -542.431)" fill="#161615"/>
      <path id="Path_262" data-name="Path 262" d="M1707.38,577.14a7.217,7.217,0,0,1,1.186-.092,1.962,1.962,0,0,1,1.34.4,1.284,1.284,0,0,1,.419,1,1.419,1.419,0,0,1-.369,1.021,1.98,1.98,0,0,1-1.461.524,2.112,2.112,0,0,1-.5-.043v1.916h-.618Zm.618,2.306a2.086,2.086,0,0,0,.51.049c.745,0,1.2-.361,1.2-1.021,0-.631-.447-.936-1.127-.936a2.588,2.588,0,0,0-.581.049Z" transform="translate(-1606.805 -543.078)" fill="#161615"/>
      <path id="Path_263" data-name="Path 263" d="M1771,577.65h.618v4.264h2.043v.518H1771Z" transform="translate(-1666.676 -543.645)" fill="#161615"/>
      <path id="Path_264" data-name="Path 264" d="M1822.475,580.927l-.5,1.5h-.639l1.625-4.781h.744l1.632,4.781h-.66l-.511-1.5Zm1.568-.482-.469-1.377c-.107-.312-.178-.6-.249-.873h-.014c-.071.284-.149.574-.241.865l-.468,1.384Z" transform="translate(-1714.058 -543.645)" fill="#161615"/>
      <path id="Path_265" data-name="Path 265" d="M1883.654,578.175H1882.2v-.525h3.54v.525h-1.461v4.256h-.625Z" transform="translate(-1771.331 -543.645)" fill="#161615"/>
      <path id="Path_266" data-name="Path 266" d="M1953.307,580.19h-1.858v1.724h2.071v.518h-2.689V577.65h2.583v.517h-1.964v1.511h1.858Z" transform="translate(-1836.06 -543.645)" fill="#161615"/>
      <path id="Path_267" data-name="Path 267" d="M2009.66,577.65h2.575v.517h-1.957v1.59h1.809v.511h-1.809v2.164h-.618Z" transform="translate(-1891.401 -543.645)" fill="#161615"/>
      <path id="Path_268" data-name="Path 268" d="M2067.48,578.759a2.239,2.239,0,0,1-2.22,2.518,2.192,2.192,0,0,1-2.15-2.427,2.271,2.271,0,0,1,2.22-2.511A2.177,2.177,0,0,1,2067.48,578.759Zm-3.71.078c0,1.021.554,1.937,1.525,1.937s1.533-.9,1.533-1.987c0-.949-.5-1.943-1.525-1.943S2063.77,577.787,2063.77,578.837Z" transform="translate(-1941.68 -542.413)" fill="#161615"/>
      <path id="Path_269" data-name="Path 269" d="M2150.252,577.145a6.485,6.485,0,0,1,1.186-.1,1.945,1.945,0,0,1,1.383.39,1.188,1.188,0,0,1,.376.908,1.254,1.254,0,0,1-.9,1.22v.021a1.192,1.192,0,0,1,.7.964,7.58,7.58,0,0,0,.369,1.313h-.641a6.257,6.257,0,0,1-.32-1.142c-.142-.66-.4-.908-.957-.93h-.582v2.072h-.618Zm.618,2.178h.631c.661,0,1.079-.362,1.079-.908,0-.617-.447-.89-1.1-.894a2.523,2.523,0,0,0-.61.059Z" transform="translate(-2023.652 -543.076)" fill="#161615"/>
      <path id="Path_270" data-name="Path 270" d="M2216.665,580.331c-.035-.666-.078-1.468-.071-2.064h-.021c-.163.561-.361,1.156-.6,1.816l-.844,2.32h-.468l-.771-2.277c-.227-.674-.419-1.291-.553-1.859h-.015c-.013.6-.049,1.4-.092,2.115l-.128,2.05h-.588l.334-4.781h.787l.816,2.313c.2.588.362,1.113.483,1.61h.021c.119-.482.291-1.008.5-1.61l.851-2.313h.787l.3,4.781h-.6Z" transform="translate(-2082.219 -543.644)" fill="#161615"/>
      <path id="Path_271" data-name="Path 271" d="M2313.236,580.19h-1.859v1.724h2.071v.518h-2.689V577.65h2.582v.517h-1.965v1.511h1.859Z" transform="translate(-2174.64 -543.645)" fill="#161615"/>
    </g>
  </g>
</svg>
