<svg xmlns="http://www.w3.org/2000/svg" width="313.727" height="104.403" viewBox="0 0 313.727 104.403">
  <g id="Calque_2" data-name="Calque 2" transform="translate(0)">
    <g id="Layer_1" data-name="Layer 1" transform="translate(0 0)">
      <path id="Path_244" data-name="Path 244" d="M33.837,104.4H78.219A11.162,11.162,0,0,0,88,98.65l22.687-41.127a11.01,11.01,0,0,0,0-10.643L88,5.754A11.162,11.162,0,0,0,78.219,0H33.837A11.167,11.167,0,0,0,24.05,5.754L1.371,46.88a11.01,11.01,0,0,0,0,10.643L24.057,98.65a11.167,11.167,0,0,0,9.786,5.754m7.483-90.821h29.4a11.162,11.162,0,0,1,9.778,5.753L95.7,46.88a11,11,0,0,1,0,10.643l-15.2,27.55a11.16,11.16,0,0,1-9.778,5.752h-29.4a11.164,11.164,0,0,1-9.78-5.753L16.355,57.523a11.01,11.01,0,0,1,0-10.643L31.547,19.332a11.166,11.166,0,0,1,9.78-5.75" transform="translate(0 0)" fill="#1c5daa"/>
      <path id="Path_245" data-name="Path 245" d="M158.68,301.055a14.533,14.533,0,1,1,14.533,14.532,14.534,14.534,0,0,1-14.533-14.532" transform="translate(-137.407 -248.467)" fill="#161615"/>
      <path id="Path_246" data-name="Path 246" d="M460.81,304.994a14.534,14.534,0,1,1,14.534,14.534,14.533,14.533,0,0,1-14.534-14.534" transform="translate(-399.493 -251.884)" fill="#161615"/>
      <path id="Path_247" data-name="Path 247" d="M903.132,248.521c11.429,0,17.711,6.993,17.711,18.011,0,12.225-6.6,19.6-18.01,19.6H890.06V248.521Zm-5.362,31.573h4.976c6.656,0,10.163-4.987,10.163-13.445,0-6.99-3.144-11.992-10.108-11.992h-5.026Zm37.435-31.573v37.612h-7.667V248.521Zm38.577,37.612h-5.64a35.995,35.995,0,0,1-.571-4.366c-1.935,3.754-5.708,4.915-10.422,4.915-9.839,0-15.024-8.19-15.024-19.143,0-10.8,6.112-19.519,17.2-19.519,8.957,0,13.6,5,14.52,11.291h-7.511c-.7-2.37-2.339-5.141-7.44-5.141-6.546,0-8.876,6.251-8.876,13.419,0,7.139,2.512,12.992,8.861,12.992,5.664,0,7.3-3.949,7.3-8.778v-.177h-7.857v-6.5h15.469Zm15.207-37.612v37.612h-7.668V248.521Z" transform="translate(-771.911 -215.125)" fill="#1c5daa"/>
      <path id="Path_248" data-name="Path 248" d="M1715.425,272.959H1699.07v10.124h18.055l-.922,6.289h-24.6V251.76h24.51v6.333h-17.036v8.521h16.355Zm16.062,16.413V275.2a2.134,2.134,0,0,0-.323-1.216l-11.894-22.22h8.637c2.644,5.664,6.1,12.84,7.776,16.345,2.465-5.35,5.33-11.127,7.776-16.345h7.986l-11.981,22.06a1.959,1.959,0,0,0-.31,1.156v14.4Zm47.323-16.413h-16.355v10.124h18.053l-.922,6.289h-24.6V251.76h24.51v6.333h-17.037v8.521h16.355Z" transform="translate(-1466.955 -218.364)" fill="#161615"/>
      <path id="Path_249" data-name="Path 249" d="M886.41,577.274a20.112,20.112,0,0,1,2.967-.224,6.221,6.221,0,0,1,4.377,1.341,5.03,5.03,0,0,1,1.523,3.881,5.777,5.777,0,0,1-1.548,4.207,6.754,6.754,0,0,1-4.785,1.558,22.465,22.465,0,0,1-2.534-.134Zm1.4,9.556a8.774,8.774,0,0,0,1.41.08c2.983,0,4.6-1.669,4.6-4.588.016-2.547-1.428-4.167-4.377-4.167a8.035,8.035,0,0,0-1.636.142Z" transform="translate(-768.403 -500.273)" fill="#161615"/>
      <path id="Path_250" data-name="Path 250" d="M967.4,577.65v10.807H966V577.65Z" transform="translate(-837.376 -500.793)" fill="#161615"/>
      <path id="Path_251" data-name="Path 251" d="M998.735,587.265a10.047,10.047,0,0,1-3.318.593,5.07,5.07,0,0,1-5.547-5.447c.015-3.224,2.228-5.581,5.852-5.581a6.606,6.606,0,0,1,2.695.5l-.338,1.137A5.609,5.609,0,0,0,995.69,578a4.041,4.041,0,0,0-4.345,4.346c0,2.741,1.65,4.361,4.169,4.361a4.635,4.635,0,0,0,1.859-.29V583.2h-2.2v-1.122h3.559Z" transform="translate(-858.089 -500.083)" fill="#161615"/>
      <path id="Path_252" data-name="Path 252" d="M1073.257,577.65v10.807h-1.4V577.65Z" transform="translate(-929.14 -500.793)" fill="#161615"/>
      <path id="Path_253" data-name="Path 253" d="M1094.517,578.837h-3.287V577.65h8v1.187h-3.3v9.62h-1.412Z" transform="translate(-945.952 -500.793)" fill="#161615"/>
      <path id="Path_254" data-name="Path 254" d="M1147.486,585.057l-1.122,3.4h-1.444l3.672-10.807h1.682l3.688,10.807h-1.491l-1.156-3.4Zm3.542-1.089-1.056-3.112c-.241-.705-.4-1.347-.563-1.972h-.031c-.161.642-.336,1.3-.547,1.956l-1.056,3.128Z" transform="translate(-992.498 -500.793)" fill="#161615"/>
      <path id="Path_255" data-name="Path 255" d="M1224.19,577.65h1.4v9.636h4.618v1.17h-6.014Z" transform="translate(-1061.204 -500.793)" fill="#161615"/>
      <path id="Path_256" data-name="Path 256" d="M1295.284,578.837H1292V577.65h8v1.187h-3.307v9.62h-1.408Z" transform="translate(-1119.993 -500.793)" fill="#161615"/>
      <path id="Path_257" data-name="Path 257" d="M1361.986,577.65v4.521h5.228V577.65h1.41v10.807h-1.41v-5.066h-5.228v5.066h-1.4V577.65Z" transform="translate(-1179.452 -500.793)" fill="#161615"/>
      <path id="Path_258" data-name="Path 258" d="M1439.977,577.65v10.807h-1.4V577.65Z" transform="translate(-1247.031 -500.793)" fill="#161615"/>
      <path id="Path_259" data-name="Path 259" d="M1467.16,588.457V577.65h1.523l3.464,5.468a30.47,30.47,0,0,1,1.94,3.511l.032-.017c-.134-1.441-.159-2.758-.159-4.441V577.65h1.314v10.807h-1.41l-3.433-5.483a34.454,34.454,0,0,1-2.02-3.608l-.048.016c.08,1.362.113,2.661.113,4.456v4.618Z" transform="translate(-1271.834 -500.793)" fill="#161615"/>
      <path id="Path_260" data-name="Path 260" d="M1549.926,587.265a10.038,10.038,0,0,1-3.317.593,5.072,5.072,0,0,1-5.549-5.447c.016-3.224,2.229-5.581,5.852-5.581a6.6,6.6,0,0,1,2.695.5l-.337,1.134a5.611,5.611,0,0,0-2.389-.464,4.042,4.042,0,0,0-4.346,4.346c0,2.741,1.652,4.361,4.169,4.361a4.63,4.63,0,0,0,1.859-.29V583.2h-2.2v-1.122h3.558Z" transform="translate(-1335.9 -500.083)" fill="#161615"/>
      <path id="Path_261" data-name="Path 261" d="M1619.366,585.64a4.924,4.924,0,0,0,2.5.705c1.428,0,2.261-.752,2.261-1.843,0-1.01-.578-1.587-2.036-2.145-1.764-.627-2.855-1.539-2.855-3.063,0-1.684,1.4-2.933,3.5-2.933a4.914,4.914,0,0,1,2.389.528l-.383,1.138a4.313,4.313,0,0,0-2.052-.513c-1.475,0-2.037.882-2.037,1.619,0,1.011.657,1.508,2.145,2.085,1.829.707,2.758,1.587,2.758,3.176,0,1.666-1.233,3.11-3.783,3.11a5.6,5.6,0,0,1-2.758-.689Z" transform="translate(-1403.461 -499.676)" fill="#161615"/>
      <path id="Path_262" data-name="Path 262" d="M1707.38,577.256a16.315,16.315,0,0,1,2.681-.208,4.435,4.435,0,0,1,3.03.9,2.9,2.9,0,0,1,.946,2.262,3.208,3.208,0,0,1-.834,2.308,4.476,4.476,0,0,1-3.3,1.185,4.778,4.778,0,0,1-1.122-.1v4.33h-1.4Zm1.4,5.212a4.717,4.717,0,0,0,1.153.111c1.684,0,2.711-.816,2.711-2.308,0-1.427-1.01-2.116-2.547-2.116a5.852,5.852,0,0,0-1.314.111Z" transform="translate(-1480.066 -500.271)" fill="#161615"/>
      <path id="Path_263" data-name="Path 263" d="M1771,577.65h1.4v9.636h4.617v1.17H1771Z" transform="translate(-1535.213 -500.793)" fill="#161615"/>
      <path id="Path_264" data-name="Path 264" d="M1823.906,585.057l-1.122,3.4h-1.443l3.672-10.807h1.682l3.688,10.807h-1.491l-1.156-3.4Zm3.543-1.089-1.061-3.112c-.241-.705-.4-1.347-.562-1.972h-.031c-.161.642-.336,1.3-.545,1.956l-1.058,3.128Z" transform="translate(-1578.867 -500.793)" fill="#161615"/>
      <path id="Path_265" data-name="Path 265" d="M1885.488,578.837H1882.2V577.65h8v1.187h-3.3v9.62h-1.412Z" transform="translate(-1631.619 -500.793)" fill="#161615"/>
      <path id="Path_266" data-name="Path 266" d="M1956.427,583.391h-4.2v3.9h4.68v1.17h-6.077V577.65h5.837v1.169h-4.44v3.416h4.2Z" transform="translate(-1691.433 -500.793)" fill="#161615"/>
      <path id="Path_267" data-name="Path 267" d="M2009.66,577.65h5.821v1.169h-4.424v3.593h4.088v1.154h-4.088v4.89h-1.4Z" transform="translate(-1742.376 -500.793)" fill="#161615"/>
      <path id="Path_268" data-name="Path 268" d="M2072.987,581.807c0,3.72-2.26,5.692-5.017,5.692-2.855,0-4.86-2.213-4.86-5.484,0-3.431,2.133-5.675,5.018-5.675C2071.08,576.34,2072.987,578.6,2072.987,581.807Zm-8.386.177c0,2.309,1.252,4.377,3.446,4.377s3.464-2.036,3.464-4.491c0-2.145-1.122-4.392-3.447-4.392S2064.6,579.61,2064.6,581.984Z" transform="translate(-1788.661 -499.659)" fill="#161615"/>
      <path id="Path_269" data-name="Path 269" d="M2150.254,577.27a14.669,14.669,0,0,1,2.681-.224,4.4,4.4,0,0,1,3.125.882,2.684,2.684,0,0,1,.85,2.052,2.835,2.835,0,0,1-2.037,2.758v.048a2.7,2.7,0,0,1,1.589,2.18,17.142,17.142,0,0,0,.833,2.967h-1.449a14.1,14.1,0,0,1-.723-2.581c-.32-1.492-.9-2.053-2.164-2.1h-1.314v4.683h-1.4Zm1.4,4.923h1.425c1.493,0,2.438-.818,2.438-2.052,0-1.394-1.011-2.011-2.486-2.02a5.7,5.7,0,0,0-1.377.134Z" transform="translate(-1864.119 -500.269)" fill="#161615"/>
      <path id="Path_270" data-name="Path 270" d="M2221.9,583.71c-.08-1.505-.175-3.318-.161-4.665h-.048c-.369,1.268-.817,2.613-1.364,4.1l-1.908,5.243h-1.058l-1.742-5.147c-.514-1.524-.947-2.919-1.25-4.2h-.034c-.03,1.347-.111,3.16-.208,4.779l-.29,4.633h-1.33l.754-10.807h1.779l1.844,5.228c.449,1.33.819,2.516,1.091,3.638h.047c.268-1.089.658-2.279,1.139-3.638l1.924-5.228h1.779l.67,10.807h-1.363Z" transform="translate(-1918.032 -500.793)" fill="#161615"/>
      <path id="Path_271" data-name="Path 271" d="M2316.357,583.391h-4.2v3.9h4.682v1.17h-6.077V577.65h5.836v1.169h-4.44v3.416h4.2Z" transform="translate(-2003.11 -500.793)" fill="#161615"/>
    </g>
  </g>
</svg>
