<svg id="Component_38_13" data-name="Component 38 – 13" xmlns="http://www.w3.org/2000/svg" width="68.115" height="19" viewBox="0 0 68.115 19">
  <path id="Icon_ionic-ios-add-circle" data-name="Icon ionic-ios-add-circle" d="M11.919,3.375a8.544,8.544,0,1,0,8.544,8.544A8.543,8.543,0,0,0,11.919,3.375Zm3.718,9.2h-3.06v3.06a.657.657,0,0,1-1.314,0v-3.06H8.2a.657.657,0,1,1,0-1.314h3.06V8.2a.657.657,0,1,1,1.314,0v3.06h3.06a.657.657,0,0,1,0,1.314Z" transform="translate(-3.375 -1.463)" fill="#81b83a"/>
  <text id="Label" transform="translate(21.115 14)" fill="#81b83a" font-size="12" font-family="TitilliumWeb-SemiBold, Titillium Web" font-weight="600"><tspan x="0" y="0">Associer </tspan></text>
</svg>
