<svg xmlns="http://www.w3.org/2000/svg" width="16.68" height="21.897" viewBox="0 0 16.68 21.897">
  <g id="driver-2" transform="translate(-61)">
    <path id="Path_272" data-name="Path 272" d="M132.547,3.208c0-1.829-2.482-3.208-5.774-3.208S121,1.379,121,3.208a.641.641,0,0,0,.642.642h10.264A.641.641,0,0,0,132.547,3.208Z" transform="translate(-57.434)" fill="#1b579f"/>
    <path id="Path_273" data-name="Path 273" d="M218.093,395.275l.519-.691-.751-.62Z" transform="translate(-150.152 -377.115)" fill="#1b579f"/>
    <path id="Path_274" data-name="Path 274" d="M232.282,434.453l.348-2.008-1.093-1.457-1.093,1.457.348,2.008Z" transform="translate(-162.197 -412.555)" fill="#1b579f"/>
    <path id="Path_275" data-name="Path 275" d="M277.337,393.968l-.75.62.518.691Z" transform="translate(-206.367 -377.119)" fill="#1b579f"/>
    <path id="Path_276" data-name="Path 276" d="M65.937,332.025l-.343.056A5.44,5.44,0,0,0,61,337.457v2.266h6.292Z" transform="translate(0 -317.825)" fill="#1b579f"/>
    <path id="Path_277" data-name="Path 277" d="M310.17,337.457a5.44,5.44,0,0,0-4.594-5.375l-.344-.056-1.355,7.7h6.292Z" transform="translate(-232.491 -317.825)" fill="#1b579f"/>
    <path id="Path_278" data-name="Path 278" d="M210.551,328.638a4.2,4.2,0,0,1-.842.1h-2.566a4.2,4.2,0,0,1-.843-.1l.149.845,1.976,1.632,1.976-1.632Z" transform="translate(-139.086 -314.583)" fill="#1b579f"/>
    <path id="Path_279" data-name="Path 279" d="M154.208,191.546h2.566a3.211,3.211,0,0,0,3.208-3.208v-1.683a2.537,2.537,0,0,1-1.283.357h-6.415a2.537,2.537,0,0,1-1.283-.357v1.683A3.211,3.211,0,0,0,154.208,191.546Z" transform="translate(-86.151 -178.673)" fill="#1b579f"/>
    <path id="Path_280" data-name="Path 280" d="M152.283,121.925H158.7a1.283,1.283,0,0,0,1.283-1.283V120H151v.642A1.283,1.283,0,0,0,152.283,121.925Z" transform="translate(-86.151 -114.868)" fill="#1b579f"/>
  </g>
</svg>
