<svg id="gps2" xmlns="http://www.w3.org/2000/svg" width="27.311" height="27.311" viewBox="0 0 27.311 27.311">
  <circle id="Ellipse_117" data-name="Ellipse 117" cx="0.5" cy="0.5" r="0.5" transform="translate(13.7 24.699)" fill="#9c9c9c"/>
  <path id="Path_235" data-name="Path 235" d="M17,39.359l.942-.706V29.706L17,29Z" transform="translate(-10.408 -16.757)" fill="#9c9c9c"/>
  <path id="Path_236" data-name="Path 236" d="M34.069,32.8a1.4,1.4,0,0,1,.115.557v3.767a1.414,1.414,0,0,1-1.413,1.413H23.354a1.414,1.414,0,0,1-1.413-1.413V33.354a1.414,1.414,0,0,1,1.413-1.413h9.418c.047,0,.091.009.137.014-.026-.039-.055-.075-.079-.116L32.337,31H21v8.476H33.714a1.414,1.414,0,0,0,1.413-1.413V32.826a2.007,2.007,0,0,1-1.057-.028Z" transform="translate(-12.524 -17.815)" fill="#9c9c9c"/>
  <path id="Path_237" data-name="Path 237" d="M27.039,54.695a1.648,1.648,0,0,0,3.043,0L31.622,51H25.5Zm1.521-2.753a1.413,1.413,0,1,1-1.413,1.413A1.414,1.414,0,0,1,28.561,51.942Z" transform="translate(-14.905 -28.398)" fill="#9c9c9c"/>
  <path id="Path_238" data-name="Path 238" d="M7,40H8.884v3.767H7Z" transform="translate(-5.116 -22.577)" fill="#9c9c9c"/>
  <path id="Path_239" data-name="Path 239" d="M3.087,28.942H6.3a1.413,1.413,0,1,1,0,2.825H3v6.122A1.414,1.414,0,0,0,4.413,39.3H8.651V28H4.413A1.411,1.411,0,0,0,3.087,28.942Zm4.622,8.476a.943.943,0,0,1-.942.942H4.884a.943.943,0,0,1-.942-.942V33.651a.943.943,0,0,1,.942-.942H6.767a.943.943,0,0,1,.942.942Z" transform="translate(-3 -16.228)" fill="#9c9c9c"/>
  <path id="Path_240" data-name="Path 240" d="M44.279,3h-.2a5.081,5.081,0,0,0-4.38,7.657l3.465,5.891a1.176,1.176,0,0,0,2.026,0l3.465-5.891A5.08,5.08,0,0,0,44.279,3Zm-.1,9.418A4.238,4.238,0,1,1,48.418,8.18,4.243,4.243,0,0,1,44.18,12.418Z" transform="translate(-22.048 -3)" fill="#9c9c9c"/>
  <circle id="Ellipse_118" data-name="Ellipse 118" cx="0.5" cy="0.5" r="0.5" transform="translate(13.7 9.699)" fill="#9c9c9c"/>
  <path id="Path_241" data-name="Path 241" d="M25.471,35a.471.471,0,0,0-.471.471v3.767a.471.471,0,0,0,.471.471h9.418a.471.471,0,0,0,.471-.471V35.471A.471.471,0,0,0,34.889,35Zm1.413,1.884h-.942v-.942h.942Zm1.884,0h-.942v-.942h.942Zm1.884,0h-.942v-.942h.942Z" transform="translate(-14.641 -19.932)" fill="#9c9c9c"/>
  <circle id="Ellipse_119" data-name="Ellipse 119" cx="3.5" cy="3.5" r="3.5" transform="translate(18.7 1.699)" fill="#9c9c9c"/>
  <path id="Path_242" data-name="Path 242" d="M30.082,20.014a1.648,1.648,0,0,0-3.043,0L25.5,23.709h6.122Zm-1.521,2.753a1.413,1.413,0,1,1,1.413-1.413A1.414,1.414,0,0,1,28.561,22.767Z" transform="translate(-14.905 -11.466)" fill="#9c9c9c"/>
  <path id="Path_243" data-name="Path 243" d="M6.767,32.471A.471.471,0,0,0,6.3,32H3v.942H6.3A.471.471,0,0,0,6.767,32.471Z" transform="translate(-3 -18.344)" fill="#9c9c9c"/>
</svg>
