<svg id="gps2" xmlns="http://www.w3.org/2000/svg" width="25.311" height="25.311" viewBox="0 0 25.311 25.311">
  <circle id="Ellipse_117" data-name="Ellipse 117" cx="0.463" cy="0.463" r="0.463" transform="translate(12.696 22.891)" fill="#f86565"/>
  <path id="Path_235" data-name="Path 235" d="M17,38.6l.873-.655V29.655L17,29Z" transform="translate(-10.89 -17.654)" fill="#f86565"/>
  <path id="Path_236" data-name="Path 236" d="M33.112,32.666a1.3,1.3,0,0,1,.107.516v3.491a1.311,1.311,0,0,1-1.309,1.309H23.182a1.311,1.311,0,0,1-1.309-1.309V33.182a1.311,1.311,0,0,1,1.309-1.309H31.91c.044,0,.085.009.127.013-.024-.036-.051-.07-.073-.107L31.506,31H21v7.855H32.783a1.311,1.311,0,0,0,1.309-1.309V32.692a1.86,1.86,0,0,1-.98-.026Z" transform="translate(-13.145 -18.781)" fill="#f86565"/>
  <path id="Path_237" data-name="Path 237" d="M26.927,54.424a1.528,1.528,0,0,0,2.82,0L31.173,51H25.5Zm1.41-2.551a1.309,1.309,0,1,1-1.309,1.309A1.311,1.311,0,0,1,28.337,51.873Z" transform="translate(-15.681 -30.053)" fill="#f86565"/>
  <path id="Path_238" data-name="Path 238" d="M7,40H8.746v3.491H7Z" transform="translate(-5.254 -23.853)" fill="#f86565"/>
  <path id="Path_239" data-name="Path 239" d="M3.08,28.873H6.055a1.309,1.309,0,1,1,0,2.618H3v5.673a1.311,1.311,0,0,0,1.309,1.309H8.237V28H4.309A1.307,1.307,0,0,0,3.08,28.873Zm4.284,7.855a.874.874,0,0,1-.873.873H4.746a.874.874,0,0,1-.873-.873V33.237a.874.874,0,0,1,.873-.873H6.491a.874.874,0,0,1,.873.873Z" transform="translate(-3 -17.09)" fill="#f86565"/>
  <path id="Path_240" data-name="Path 240" d="M43.892,3h-.183a4.709,4.709,0,0,0-4.059,7.1l3.211,5.459a1.09,1.09,0,0,0,1.878,0L47.951,10.1A4.708,4.708,0,0,0,43.892,3ZM43.8,11.728A3.928,3.928,0,1,1,47.728,7.8,3.932,3.932,0,0,1,43.8,11.728Z" transform="translate(-23.289 -3)" fill="#f86565"/>
  <circle id="Ellipse_118" data-name="Ellipse 118" cx="0.463" cy="0.463" r="0.463" transform="translate(12.696 8.989)" fill="#f86565"/>
  <path id="Path_241" data-name="Path 241" d="M25.436,35a.437.437,0,0,0-.436.436v3.491a.437.437,0,0,0,.436.436h8.728a.437.437,0,0,0,.436-.436V35.436A.437.437,0,0,0,34.164,35Zm1.309,1.746h-.873v-.873h.873Zm1.746,0h-.873v-.873h.873Zm1.746,0h-.873v-.873h.873Z" transform="translate(-15.399 -21.035)" fill="#f86565"/>
  <circle id="Ellipse_119" data-name="Ellipse 119" cx="3.244" cy="3.244" r="3.244" transform="translate(17.33 1.575)" fill="#f86565"/>
  <path id="Path_242" data-name="Path 242" d="M29.747,19.94a1.528,1.528,0,0,0-2.82,0L25.5,23.364h5.673Zm-1.41,2.551a1.309,1.309,0,1,1,1.309-1.309A1.311,1.311,0,0,1,28.337,22.491Z" transform="translate(-15.681 -12.018)" fill="#f86565"/>
  <path id="Path_243" data-name="Path 243" d="M6.491,32.436A.437.437,0,0,0,6.055,32H3v.873H6.055A.437.437,0,0,0,6.491,32.436Z" transform="translate(-3 -19.344)" fill="#f86565"/>
</svg>
