<svg xmlns="http://www.w3.org/2000/svg" width="19.778" height="16.477" viewBox="0 0 19.778 16.477">
  <path id="Icon_ionic-ios-share-alt" data-name="Icon ionic-ios-share-alt" d="M4.677,13.671l7.266-6.8a.371.371,0,0,1,.288-.124c.227.01.515.17.515.412v3.409a.22.22,0,0,0,.185.211C20.156,11.889,23.2,17.3,24.275,22.909c.041.221-.257.427-.4.252-2.636-3.321-5.845-5.489-10.917-5.531a.255.255,0,0,0-.216.247v3.347A.442.442,0,0,1,12,21.5L4.682,14.582a.569.569,0,0,1-.18-.433A.69.69,0,0,1,4.677,13.671Z" transform="translate(-4.502 -6.749)" fill="#9a9a9a"/>
</svg>
