<svg xmlns="http://www.w3.org/2000/svg" width="19.812" height="20.307" viewBox="0 0 19.812 20.307">
  <path id="Icon_metro-satellite" data-name="Icon metro-satellite" d="M2.572,14.727,9.2,21.355s1.582-3.756-.645-5.983C6.353,13.169,2.572,14.727,2.572,14.727Zm17.78.527-3.366,3.366.421.421,3.366-3.366-.421-.421Zm1.683.842-3.787-3.788a1.192,1.192,0,0,0-1.683,0l-.332.332L15.3,11.71l1.665-1.665a1.256,1.256,0,0,0-.052-1.736L14.865,6.258a1.19,1.19,0,0,0-1.683,0l-1.513,1.46-.8-.8.054-.054a1.191,1.191,0,0,0,0-1.684L7.138,1.4a1.191,1.191,0,0,0-1.684,0L2.93,3.921a1.191,1.191,0,0,0,0,1.684L6.717,9.392a1.191,1.191,0,0,0,1.684,0l.828-.828.82.827L8.526,10.915c-.465.465-.289,3.052-.289,3.052l1.025,1.025s2.587.176,3.051-.289l1.318-1.317.928.928-.52.52a1.19,1.19,0,0,0,0,1.683L17.827,20.3a1.19,1.19,0,0,0,1.683,0l2.525-2.525a1.192,1.192,0,0,0,0-1.685ZM3.351,4.342,5.876,1.817a.594.594,0,0,1,.842,0L3.351,5.183A.594.594,0,0,1,3.351,4.342ZM3.771,5.6,7.138,2.237l.421.421L4.192,6.025,3.771,5.6Zm.842.842L7.98,3.079,8.4,3.5,5.034,6.867l-.421-.421Zm.842.842L8.821,3.921l.421.421L5.876,7.709l-.421-.421Zm.842.842L9.663,4.763l.421.421L6.717,8.55,6.3,8.129Zm1.683.842a.594.594,0,0,1-.842,0L10.5,5.6a.594.594,0,0,1,0,.842Zm1.68,3.158-.315-.316,4.351-4.351.316.315Zm4.8,3.125,2.526-2.526a.6.6,0,0,1,.842,0L14.46,16.095a.594.594,0,0,1,0-.842Zm7.154,2.1L19.09,19.882a.594.594,0,0,1-.842,0l-2.525-2.525,3.366-3.366-.421-.421L15.3,16.936l-.421-.421,3.367-3.367,3.366,3.367a.6.6,0,0,1,0,.842Zm-.421-1.262-3.366,3.366.421.421,3.366-3.366Zm-1.683-1.683-3.366,3.366.421.421,3.366-3.366-.421-.421Z" transform="translate(-2.572 -1.047)" fill="#636363"/>
</svg>
