<svg xmlns="http://www.w3.org/2000/svg" width="14.167" height="18.889" viewBox="0 0 14.167 18.889">
  <path id="Icon_awesome-file-excel" data-name="Icon awesome-file-excel" d="M8.264,5.017V0H.885A.883.883,0,0,0,0,.885V18a.883.883,0,0,0,.885.885h12.4A.883.883,0,0,0,14.167,18V5.9H9.149A.888.888,0,0,1,8.264,5.017Zm2.217,3.929L8.264,12.4l2.217,3.449a.443.443,0,0,1-.373.682H8.821A.444.444,0,0,1,8.43,16.3c-.723-1.335-1.347-2.534-1.347-2.534-.236.546-.369.738-1.35,2.538a.439.439,0,0,1-.387.232H4.058a.443.443,0,0,1-.373-.683L5.91,12.4,3.686,8.95a.442.442,0,0,1,.373-.683H5.342a.444.444,0,0,1,.391.232c.963,1.8.738,1.24,1.35,2.527,0,0,.225-.432,1.35-2.527a.444.444,0,0,1,.391-.232h1.284A.44.44,0,0,1,10.481,8.946ZM14.167,4.5v.225H9.444V0h.225A.885.885,0,0,1,10.3.258l3.612,3.615A.883.883,0,0,1,14.167,4.5Z" fill="#9a9a9a"/>
</svg>
