<svg xmlns="http://www.w3.org/2000/svg" width="18.95" height="18.95" viewBox="0 0 18.95 18.95">
  <path id="Icon_awesome-link" data-name="Icon awesome-link" d="M12.088,6.862A5.623,5.623,0,0,1,12.1,14.8l-.013.014L9.6,17.3A5.626,5.626,0,0,1,1.645,9.349L3.019,7.975a.592.592,0,0,1,1.01.393,6.82,6.82,0,0,0,.359,1.951.6.6,0,0,1-.14.615l-.484.484a2.665,2.665,0,1,0,3.744,3.793l2.487-2.487a2.664,2.664,0,0,0,0-3.769,2.772,2.772,0,0,0-.383-.317.594.594,0,0,1-.257-.467,1.474,1.474,0,0,1,.433-1.1l.779-.779a.6.6,0,0,1,.762-.064,5.643,5.643,0,0,1,.76.636ZM17.3,1.645a5.632,5.632,0,0,0-7.956,0L6.861,4.132l-.013.014a5.627,5.627,0,0,0,.773,8.579.6.6,0,0,0,.762-.064l.779-.779a1.474,1.474,0,0,0,.433-1.1.594.594,0,0,0-.257-.467,2.772,2.772,0,0,1-.383-.317,2.664,2.664,0,0,1,0-3.769l2.487-2.487a2.665,2.665,0,1,1,3.744,3.793l-.484.484a.6.6,0,0,0-.14.615,6.82,6.82,0,0,1,.359,1.951.592.592,0,0,0,1.01.393L17.3,9.6a5.632,5.632,0,0,0,0-7.956Z" transform="translate(0 0)" fill="#fff"/>
</svg>
