<svg xmlns="http://www.w3.org/2000/svg" width="20.251" height="20.251" viewBox="0 0 20.251 20.251">
  <path id="Icon_awesome-gas-pump" data-name="Icon awesome-gas-pump" d="M13.29,17.72H.633A.635.635,0,0,0,0,18.353v1.266a.635.635,0,0,0,.633.633H13.29a.635.635,0,0,0,.633-.633V18.353A.635.635,0,0,0,13.29,17.72ZM19.508,4.244l-3.2-3.2a.635.635,0,0,0-.894,0l-.447.447a.635.635,0,0,0,0,.894l1.491,1.491V6.328a2.211,2.211,0,0,0,1.9,2.183v6.36a.949.949,0,0,1-1.9,0V13.606a3.481,3.481,0,0,0-3.481-3.481h-.316V2.531A2.534,2.534,0,0,0,10.126,0H3.8A2.534,2.534,0,0,0,1.266,2.531V16.454H12.657v-4.43h.316a1.582,1.582,0,0,1,1.582,1.582v1.1a2.966,2.966,0,0,0,2.551,3,2.856,2.856,0,0,0,3.144-2.836V6.036A2.536,2.536,0,0,0,19.508,4.244Zm-9.382,3.35H3.8V2.531h6.328Z" fill="#1b579f"/>
</svg>
