<svg xmlns="http://www.w3.org/2000/svg" width="22.5" height="22.5" viewBox="0 0 22.5 22.5">
  <path id="Icon_awesome-hashtag" data-name="Icon awesome-hashtag" d="M22.132,9.789,22.49,7.78a.6.6,0,0,0-.593-.709H18.14l.734-4.113a.6.6,0,0,0-.593-.709H16.24a.6.6,0,0,0-.593.5l-.772,4.325H9.921l.734-4.113a.6.6,0,0,0-.593-.709H8.022a.6.6,0,0,0-.593.5L6.656,7.071H2.684a.6.6,0,0,0-.593.5L1.731,9.577a.6.6,0,0,0,.593.709H6.082L4.934,16.714H.962a.6.6,0,0,0-.593.5L.01,19.22a.6.6,0,0,0,.593.709H4.36l-.734,4.113a.6.6,0,0,0,.593.709H6.26a.6.6,0,0,0,.593-.5l.772-4.325h4.954l-.734,4.113a.6.6,0,0,0,.593.709h2.041a.6.6,0,0,0,.593-.5l.772-4.325h3.972a.6.6,0,0,0,.593-.5l.359-2.009a.6.6,0,0,0-.593-.709H16.418l1.148-6.429h3.972a.6.6,0,0,0,.593-.5Zm-8.979,6.925H8.2l1.148-6.429H14.3Z" transform="translate(0 -2.25)" fill="#1b579f"/>
</svg>
