<svg xmlns="http://www.w3.org/2000/svg" width="32.734" height="32.734" viewBox="0 0 32.734 32.734">
  <path id="Icon_awesome-link" data-name="Icon awesome-link" d="M20.882,11.853a9.713,9.713,0,0,1,.023,13.72l-.023.024-4.3,4.3A9.718,9.718,0,0,1,2.842,16.149l2.372-2.372a1.022,1.022,0,0,1,1.745.678,11.781,11.781,0,0,0,.62,3.371,1.029,1.029,0,0,1-.242,1.062l-.837.837a4.6,4.6,0,1,0,6.468,6.551l4.3-4.3a4.6,4.6,0,0,0,0-6.51,4.789,4.789,0,0,0-.661-.548,1.025,1.025,0,0,1-.444-.806,2.547,2.547,0,0,1,.748-1.906l1.346-1.346a1.027,1.027,0,0,1,1.316-.111,9.749,9.749,0,0,1,1.312,1.1Zm9.011-9.011a9.729,9.729,0,0,0-13.743,0l-4.3,4.3-.023.024a9.72,9.72,0,0,0,1.335,14.819,1.027,1.027,0,0,0,1.316-.111l1.346-1.346a2.547,2.547,0,0,0,.748-1.906,1.025,1.025,0,0,0-.444-.806,4.789,4.789,0,0,1-.661-.548,4.6,4.6,0,0,1,0-6.51l4.3-4.3a4.6,4.6,0,1,1,6.468,6.551l-.837.837a1.029,1.029,0,0,0-.242,1.062,11.781,11.781,0,0,1,.62,3.371,1.022,1.022,0,0,0,1.745.678l2.372-2.372a9.728,9.728,0,0,0,0-13.743Z" transform="translate(0 0)" fill="#1b579f"/>
</svg>
