<svg xmlns="http://www.w3.org/2000/svg" width="30.046" height="30.046" viewBox="0 0 30.046 30.046">
  <path id="Icon_awesome-history" data-name="Icon awesome-history" d="M30.608,15.557A15.023,15.023,0,0,1,6.157,27.282a1.453,1.453,0,0,1-.111-2.157l.683-.683a1.456,1.456,0,0,1,1.932-.12A11.147,11.147,0,1,0,7.949,7.464l3.074,3.074a.969.969,0,0,1-.685,1.655H1.532a.969.969,0,0,1-.969-.969V2.418a.969.969,0,0,1,1.655-.685L5.208,4.723a15.023,15.023,0,0,1,25.4,10.834ZM19.649,20.329l.6-.765a1.454,1.454,0,0,0-.255-2.04l-2.466-1.918V9.285A1.454,1.454,0,0,0,16.07,7.832H15.1a1.454,1.454,0,0,0-1.454,1.454V17.5l3.962,3.082A1.454,1.454,0,0,0,19.649,20.329Z" transform="translate(-0.563 -0.563)" fill="#1b579f"/>
</svg>
