<svg xmlns="http://www.w3.org/2000/svg" width="15.761" height="15.761" viewBox="0 0 15.761 15.761">
  <path id="Icon_awesome-hashtag" data-name="Icon awesome-hashtag" d="M15.5,7.531l.251-1.407a.422.422,0,0,0-.416-.5H12.707l.514-2.881a.422.422,0,0,0-.416-.5H11.376a.422.422,0,0,0-.416.348L10.42,5.627H6.95l.514-2.881a.422.422,0,0,0-.416-.5H5.619A.422.422,0,0,0,5.2,2.6L4.663,5.627H1.88a.422.422,0,0,0-.416.348L1.213,7.383a.422.422,0,0,0,.416.5H4.26l-.8,4.5H.674a.422.422,0,0,0-.416.348L.007,14.137a.422.422,0,0,0,.416.5H3.054L2.54,17.515a.422.422,0,0,0,.416.5H4.385a.422.422,0,0,0,.416-.348l.541-3.029h3.47L8.3,17.515a.422.422,0,0,0,.416.5h1.429a.422.422,0,0,0,.416-.348l.541-3.029h2.783a.422.422,0,0,0,.416-.348l.251-1.407a.422.422,0,0,0-.416-.5H11.5l.8-4.5h2.783a.422.422,0,0,0,.416-.348Zm-6.29,4.851H5.744l.8-4.5h3.47Z" transform="translate(0 -2.25)" fill="#636363"/>
</svg>
