<svg xmlns="http://www.w3.org/2000/svg" width="16.064" height="16.064" viewBox="0 0 16.064 16.064">
  <path id="Icon_awesome-history" data-name="Icon awesome-history" d="M16.627,8.58A8.033,8.033,0,0,1,3.554,14.848a.777.777,0,0,1-.06-1.153l.365-.365a.779.779,0,0,1,1.033-.064,5.96,5.96,0,1,0-.38-9.014L6.155,5.9a.518.518,0,0,1-.366.885H1.081a.518.518,0,0,1-.518-.518V1.554a.518.518,0,0,1,.885-.366l1.6,1.6A8.032,8.032,0,0,1,16.627,8.58Zm-5.859,2.552.318-.409a.777.777,0,0,0-.136-1.091L9.631,8.606V5.226a.777.777,0,0,0-.777-.777H8.336a.777.777,0,0,0-.777.777V9.62l2.118,1.648A.777.777,0,0,0,10.768,11.131Z" transform="translate(-0.563 -0.563)" fill="#f86565"/>
</svg>
