<svg xmlns="http://www.w3.org/2000/svg" width="22.803" height="18.243" viewBox="0 0 22.803 18.243">
  <path id="Icon_awesome-sitemap" data-name="Icon awesome-sitemap" d="M4.561,12.542H1.14A1.14,1.14,0,0,0,0,13.682V17.1a1.14,1.14,0,0,0,1.14,1.14h3.42A1.14,1.14,0,0,0,5.7,17.1v-3.42A1.14,1.14,0,0,0,4.561,12.542Zm-.855-2.85h6.841V11.4h1.71V9.691H19.1V11.4h1.71V9.35a1.37,1.37,0,0,0-1.369-1.369H12.257V5.7h1.425a1.14,1.14,0,0,0,1.14-1.14V1.14A1.14,1.14,0,0,0,13.682,0H9.121a1.14,1.14,0,0,0-1.14,1.14v3.42A1.14,1.14,0,0,0,9.121,5.7h1.425v2.28H3.364A1.37,1.37,0,0,0,2,9.35V11.4h1.71Zm9.406,2.85H9.691a1.14,1.14,0,0,0-1.14,1.14V17.1a1.14,1.14,0,0,0,1.14,1.14h3.42a1.14,1.14,0,0,0,1.14-1.14v-3.42A1.14,1.14,0,0,0,13.112,12.542Zm8.551,0h-3.42a1.14,1.14,0,0,0-1.14,1.14V17.1a1.14,1.14,0,0,0,1.14,1.14h3.42A1.14,1.14,0,0,0,22.8,17.1v-3.42A1.14,1.14,0,0,0,21.663,12.542Z" fill="#f86565"/>
</svg>
