<svg xmlns="http://www.w3.org/2000/svg" width="21.753" height="17.402" viewBox="0 0 21.753 17.402">
  <path id="Icon_awesome-truck" data-name="Icon awesome-truck" d="M21.209,11.964h-.544V8.29a1.632,1.632,0,0,0-.479-1.152l-3.4-3.4a1.632,1.632,0,0,0-1.152-.479h-1.5V1.631A1.632,1.632,0,0,0,12.508,0H1.631A1.632,1.632,0,0,0,0,1.631V12.508a1.632,1.632,0,0,0,1.631,1.631h.544a3.263,3.263,0,1,0,6.526,0h4.351a3.263,3.263,0,1,0,6.526,0h1.631a.545.545,0,0,0,.544-.544V12.508A.545.545,0,0,0,21.209,11.964ZM5.438,15.771A1.631,1.631,0,1,1,7.07,14.139,1.632,1.632,0,0,1,5.438,15.771Zm10.877,0a1.631,1.631,0,1,1,1.631-1.631A1.632,1.632,0,0,1,16.315,15.771ZM19.034,8.7H14.139V4.894h1.5l3.4,3.4Z" fill="#636363"/>
</svg>
