<svg xmlns="http://www.w3.org/2000/svg" width="22.5" height="18" viewBox="0 0 22.5 18">
  <path id="Icon_awesome-truck" data-name="Icon awesome-truck" d="M21.938,12.375h-.562v-3.8a1.688,1.688,0,0,0-.5-1.192L17.367,3.871a1.688,1.688,0,0,0-1.192-.5h-1.55V1.688A1.688,1.688,0,0,0,12.938,0H1.688A1.688,1.688,0,0,0,0,1.688v11.25a1.688,1.688,0,0,0,1.688,1.688H2.25a3.375,3.375,0,0,0,6.75,0h4.5a3.375,3.375,0,0,0,6.75,0h1.688a.564.564,0,0,0,.563-.562V12.938A.564.564,0,0,0,21.938,12.375ZM5.625,16.313a1.688,1.688,0,1,1,1.688-1.687A1.688,1.688,0,0,1,5.625,16.313Zm11.25,0a1.688,1.688,0,1,1,1.688-1.687A1.688,1.688,0,0,1,16.875,16.313ZM19.688,9H14.625V5.063h1.55l3.512,3.512Z" fill="#1b579f"/>
</svg>
