<svg xmlns="http://www.w3.org/2000/svg" width="17.5" height="17.5" viewBox="0 0 17.5 17.5">
  <path id="Icon_material-settings-applications" data-name="Icon material-settings-applications" d="M11,9.056A1.944,1.944,0,1,0,12.944,11,1.95,1.95,0,0,0,11,9.056ZM17.806,2.25H4.194A1.944,1.944,0,0,0,2.25,4.194V17.806A1.944,1.944,0,0,0,4.194,19.75H17.806a1.944,1.944,0,0,0,1.944-1.944V4.194A1.944,1.944,0,0,0,17.806,2.25ZM16.1,11a4.921,4.921,0,0,1-.049.661l1.439,1.128a.344.344,0,0,1,.078.438l-1.361,2.353a.344.344,0,0,1-.418.146L14.1,15.044a5.214,5.214,0,0,1-1.147.671l-.253,1.8a.353.353,0,0,1-.34.292H9.639a.354.354,0,0,1-.34-.282l-.253-1.8A5,5,0,0,1,7.9,15.054l-1.692.681a.344.344,0,0,1-.418-.146L4.428,13.236a.344.344,0,0,1,.078-.437l1.439-1.128A5.189,5.189,0,0,1,5.9,11a4.92,4.92,0,0,1,.049-.661L4.506,9.211a.344.344,0,0,1-.078-.438L5.789,6.421a.344.344,0,0,1,.418-.146L7.9,6.956a5.214,5.214,0,0,1,1.147-.671l.253-1.8a.353.353,0,0,1,.34-.292h2.722a.354.354,0,0,1,.34.282l.253,1.8a5,5,0,0,1,1.147.671l1.692-.681a.344.344,0,0,1,.418.146l1.361,2.353a.344.344,0,0,1-.078.438l-1.439,1.128A5.19,5.19,0,0,1,16.1,11Z" transform="translate(-2.25 -2.25)" fill="#1b579f"/>
</svg>
