<svg xmlns="http://www.w3.org/2000/svg" width="12" height="12" viewBox="0 0 12 12">
  <path id="Icon_awesome-history" data-name="Icon awesome-history" d="M12.563,6.551A6,6,0,0,1,2.8,11.234a.58.58,0,0,1-.044-.861l.273-.273a.582.582,0,0,1,.772-.048,4.452,4.452,0,1,0-.284-6.733L4.74,4.547a.387.387,0,0,1-.274.661H.95a.387.387,0,0,1-.387-.387V1.3a.387.387,0,0,1,.661-.274L2.418,2.224A6,6,0,0,1,12.563,6.551ZM8.186,8.457l.238-.306a.581.581,0,0,0-.1-.815l-.985-.766V4.046a.581.581,0,0,0-.581-.581H6.369a.581.581,0,0,0-.581.581V7.328L7.371,8.559A.581.581,0,0,0,8.186,8.457Z" transform="translate(-0.563 -0.563)" fill="#3d3d3d"/>
</svg>
