<svg xmlns="http://www.w3.org/2000/svg" width="17.759" height="20.296" viewBox="0 0 17.759 20.296">
  <path id="Icon_awesome-calendar-alt" data-name="Icon awesome-calendar-alt" d="M0,18.394a1.9,1.9,0,0,0,1.9,1.9H15.857a1.9,1.9,0,0,0,1.9-1.9V7.611H0Zm12.685-7.77a.477.477,0,0,1,.476-.476h1.586a.477.477,0,0,1,.476.476V12.21a.477.477,0,0,1-.476.476H13.161a.477.477,0,0,1-.476-.476Zm0,5.074a.477.477,0,0,1,.476-.476h1.586a.477.477,0,0,1,.476.476v1.586a.477.477,0,0,1-.476.476H13.161a.477.477,0,0,1-.476-.476ZM7.611,10.624a.477.477,0,0,1,.476-.476H9.673a.477.477,0,0,1,.476.476V12.21a.477.477,0,0,1-.476.476H8.087a.477.477,0,0,1-.476-.476Zm0,5.074a.477.477,0,0,1,.476-.476H9.673a.477.477,0,0,1,.476.476v1.586a.477.477,0,0,1-.476.476H8.087a.477.477,0,0,1-.476-.476ZM2.537,10.624a.477.477,0,0,1,.476-.476H4.6a.477.477,0,0,1,.476.476V12.21a.477.477,0,0,1-.476.476H3.013a.477.477,0,0,1-.476-.476Zm0,5.074a.477.477,0,0,1,.476-.476H4.6a.477.477,0,0,1,.476.476v1.586a.477.477,0,0,1-.476.476H3.013a.477.477,0,0,1-.476-.476ZM15.857,2.537h-1.9V.634A.636.636,0,0,0,13.32,0H12.051a.636.636,0,0,0-.634.634v1.9H6.343V.634A.636.636,0,0,0,5.708,0H4.44a.636.636,0,0,0-.634.634v1.9H1.9A1.9,1.9,0,0,0,0,4.44v1.9H17.759V4.44A1.9,1.9,0,0,0,15.857,2.537Z" fill="#1b579f"/>
</svg>
