<svg xmlns="http://www.w3.org/2000/svg" width="39.183" height="14" viewBox="0 0 39.183 14">
  <g id="license-plate" transform="translate(0 -164.532)">
    <g id="Group_629" data-name="Group 629" transform="translate(27.84 169.524)">
      <g id="Group_628" data-name="Group 628">
        <path id="Path_231" data-name="Path 231" d="M364.529,229.763c-.467,0-.743.259-.743.835v2.212c0,.576.276.835.743.835s.751-.259.751-.835V230.6C365.28,230.022,365,229.763,364.529,229.763Z" transform="translate(-363.786 -229.763)" fill="#1b579f"/>
      </g>
    </g>
    <g id="Group_631" data-name="Group 631" transform="translate(32.589 169.524)">
      <g id="Group_630" data-name="Group 630">
        <path id="Path_232" data-name="Path 232" d="M426.576,229.763c-.467,0-.743.259-.743.835v2.212c0,.576.275.835.743.835s.751-.259.751-.835V230.6C427.327,230.022,427.043,229.763,426.576,229.763Z" transform="translate(-425.833 -229.763)" fill="#1b579f"/>
      </g>
    </g>
    <g id="Group_633" data-name="Group 633" transform="translate(23.092 169.524)">
      <g id="Group_632" data-name="Group 632">
        <path id="Path_233" data-name="Path 233" d="M302.482,229.763c-.467,0-.743.259-.743.835v2.212c0,.576.276.835.743.835s.751-.259.751-.835V230.6C303.233,230.022,302.949,229.763,302.482,229.763Z" transform="translate(-301.739 -229.763)" fill="#1b579f"/>
      </g>
    </g>
    <g id="Group_635" data-name="Group 635" transform="translate(0 164.532)">
      <g id="Group_634" data-name="Group 634" transform="translate(0 0)">
        <path id="Path_234" data-name="Path 234" d="M35.256,164.532H3.927A3.931,3.931,0,0,0,0,168.459v6.146a3.931,3.931,0,0,0,3.927,3.927H35.256a3.931,3.931,0,0,0,3.927-3.927v-6.146A3.931,3.931,0,0,0,35.256,164.532Zm-25.994,1.28a.854.854,0,1,1-.854.854A.854.854,0,0,1,9.262,165.813ZM7.73,174.406l-1.218-2.07-1.218,2.07a.351.351,0,0,1-.309.134c-.359,0-.868-.284-.868-.643a.451.451,0,0,1,.075-.234l1.444-2.228-1.385-2.22a.472.472,0,0,1-.083-.259c0-.35.476-.618.843-.618a.406.406,0,0,1,.392.217l1.11,1.936,1.11-1.936a.406.406,0,0,1,.392-.217c.367,0,.843.267.843.618a.472.472,0,0,1-.083.259l-1.385,2.22,1.444,2.228a.452.452,0,0,1,.075.234c0,.359-.509.643-.868.643A.341.341,0,0,1,7.73,174.406Zm1.532,2.931a.854.854,0,1,1,.854-.854A.854.854,0,0,1,9.262,177.337Zm4.577-8.322-1.719,2.863a.216.216,0,0,0-.033.117v2.095c0,.267-.325.4-.651.4s-.651-.134-.651-.4v-2.095a.215.215,0,0,0-.033-.117l-1.727-2.863a.2.2,0,0,1-.017-.092c0-.309.526-.534.885-.534a.375.375,0,0,1,.376.242l1.168,2.145,1.16-2.145a.368.368,0,0,1,.376-.242c.359,0,.885.225.885.534A.192.192,0,0,1,13.839,169.015ZM17.9,174.49H14.348c-.267,0-.376-.142-.376-.342a.968.968,0,0,1,.142-.459l2.353-4.164H14.532c-.25,0-.392-.267-.392-.568,0-.275.117-.567.392-.567h3.221a.33.33,0,0,1,.375.342,1,1,0,0,1-.142.459l-2.353,4.164H17.9c.25,0,.392.3.392.568S18.154,174.49,17.9,174.49Zm7.984-1.919a1.814,1.814,0,0,1-2.053,1.97,1.808,1.808,0,0,1-2.045-1.97v-2.212a1.808,1.808,0,0,1,2.045-1.97,1.814,1.814,0,0,1,2.053,1.97Zm.651,0v-2.212a1.808,1.808,0,0,1,2.045-1.97,1.814,1.814,0,0,1,2.053,1.97v2.212a1.814,1.814,0,0,1-2.053,1.97A1.808,1.808,0,0,1,26.538,172.57Zm3.382,4.767a.854.854,0,1,1,.854-.854A.854.854,0,0,1,29.921,177.337Zm0-9.817a.854.854,0,1,1,.854-.854A.854.854,0,0,1,29.921,167.52Zm5.464,5.05a1.814,1.814,0,0,1-2.053,1.97,1.808,1.808,0,0,1-2.045-1.97v-2.212a1.808,1.808,0,0,1,2.045-1.97,1.814,1.814,0,0,1,2.053,1.97Z" transform="translate(0 -164.532)" fill="#1b579f"/>
      </g>
    </g>
  </g>
</svg>
