<svg id="pickup-truck-side-view" xmlns="http://www.w3.org/2000/svg" width="33.771" height="22.352" viewBox="0 0 33.771 22.352">
  <g id="Group_601" data-name="Group 601">
    <path id="Path_203" data-name="Path 203" d="M209.73,197.614a4.645,4.645,0,1,0,4.646,4.645A4.645,4.645,0,0,0,209.73,197.614Zm0,6.665a2.02,2.02,0,1,1,2.02-2.02A2.019,2.019,0,0,1,209.73,204.279Z" transform="translate(-185.603 -184.552)" fill="#1b579f"/>
    <path id="Path_204" data-name="Path 204" d="M55.266,197.614a4.645,4.645,0,1,0,4.646,4.645A4.645,4.645,0,0,0,55.266,197.614Zm0,6.665a2.02,2.02,0,1,1,2.02-2.02A2.019,2.019,0,0,1,55.266,204.279Z" transform="translate(-45.812 -184.552)" fill="#1b579f"/>
    <path id="Path_205" data-name="Path 205" d="M29.432,67.647c-1.444-.376-2.271-.612-2.838-1.707L24.7,62.1a4.059,4.059,0,0,0-3.275-1.992h-3.65s-.53.006-1.177.006H14.383a1.181,1.181,0,0,0-1.177,1.177v5.6a1.436,1.436,0,0,1-1.284.8l-10.83,0A1.1,1.1,0,0,0,0,68.861v8.015a1.181,1.181,0,0,0,1.036,1.168v.01H4.343c0-.079-.006-.158-.006-.238a5.117,5.117,0,0,1,10.234,0c0,.08,0,.159-.006.238h4a2.249,2.249,0,0,0,.374-.032c0-.068-.005-.137-.005-.206a5.155,5.155,0,0,1,10.31,0c0,.08,0,.159-.006.238h2.291a2.25,2.25,0,0,0,2.243-2.243V71.548C33.772,67.959,30.631,67.959,29.432,67.647Zm-11.659-.2v-5.78h2.852a3.612,3.612,0,0,1,2.914,1.772l1.688,3.417a2.437,2.437,0,0,0,.417.591Z" transform="translate(0 -60.108)" fill="#1b579f"/>
  </g>
</svg>
