<svg id="pickup-truck-side-view" xmlns="http://www.w3.org/2000/svg" width="25.785" height="17.066" viewBox="0 0 25.785 17.066">
  <g id="Group_601" data-name="Group 601">
    <path id="Path_203" data-name="Path 203" d="M208.631,197.614a3.547,3.547,0,1,0,3.547,3.547A3.546,3.546,0,0,0,208.631,197.614Zm0,5.089a1.542,1.542,0,1,1,1.542-1.542A1.542,1.542,0,0,1,208.631,202.7Z" transform="translate(-190.21 -187.641)" fill="#f86565"/>
    <path id="Path_204" data-name="Path 204" d="M54.167,197.614a3.547,3.547,0,1,0,3.547,3.547A3.546,3.546,0,0,0,54.167,197.614Zm0,5.089a1.542,1.542,0,1,1,1.542-1.542A1.542,1.542,0,0,1,54.167,202.7Z" transform="translate(-46.949 -187.641)" fill="#f86565"/>
    <path id="Path_205" data-name="Path 205" d="M22.471,65.864c-1.1-.287-1.734-.467-2.167-1.3l-1.448-2.932a3.1,3.1,0,0,0-2.5-1.521H13.569s-.4,0-.9,0H10.982a.9.9,0,0,0-.9.9V65.29A1.1,1.1,0,0,1,9.1,65.9l-8.269,0a.841.841,0,0,0-.834.89V72.91a.9.9,0,0,0,.791.891v.007H3.316c0-.06,0-.121,0-.182a3.907,3.907,0,0,1,7.813,0c0,.061,0,.121,0,.182h3.053a1.718,1.718,0,0,0,.286-.025c0-.052,0-.1,0-.157a3.936,3.936,0,0,1,7.872,0c0,.061,0,.121,0,.182h1.749A1.718,1.718,0,0,0,25.784,72.1V68.842C25.785,66.1,23.387,66.1,22.471,65.864Zm-8.9-.153V61.3h2.178a2.758,2.758,0,0,1,2.225,1.353l1.289,2.609a1.861,1.861,0,0,0,.318.451Z" transform="translate(0 -60.108)" fill="#f86565"/>
  </g>
</svg>
