<svg id="pickup-truck-side-view" xmlns="http://www.w3.org/2000/svg" width="32.686" height="21.634" viewBox="0 0 32.686 21.634">
  <g id="Group_601" data-name="Group 601">
    <path id="Path_203" data-name="Path 203" d="M209.581,197.614a4.5,4.5,0,1,0,4.5,4.5A4.5,4.5,0,0,0,209.581,197.614Zm0,6.451a1.955,1.955,0,1,1,1.955-1.955A1.954,1.954,0,0,1,209.581,204.065Z" transform="translate(-186.229 -184.972)" fill="#9c9c9c"/>
    <path id="Path_204" data-name="Path 204" d="M55.117,197.614a4.5,4.5,0,1,0,4.5,4.5A4.5,4.5,0,0,0,55.117,197.614Zm0,6.451a1.955,1.955,0,1,1,1.955-1.955A1.954,1.954,0,0,1,55.117,204.065Z" transform="translate(-45.966 -184.972)" fill="#9c9c9c"/>
    <path id="Path_205" data-name="Path 205" d="M28.486,67.4c-1.4-.364-2.2-.592-2.747-1.652L23.9,62.036a3.929,3.929,0,0,0-3.169-1.928H17.2s-.513.006-1.139.006H13.921a1.143,1.143,0,0,0-1.139,1.139v5.423a1.39,1.39,0,0,1-1.243.777l-10.482,0A1.066,1.066,0,0,0,0,68.58v7.757a1.143,1.143,0,0,0,1,1.13v.009H4.2c0-.076-.006-.153-.006-.23a4.952,4.952,0,0,1,9.9,0c0,.077,0,.154-.006.23h3.871a2.178,2.178,0,0,0,.362-.031c0-.066,0-.132,0-.2a4.989,4.989,0,0,1,9.979,0c0,.077,0,.154-.006.23h2.217a2.177,2.177,0,0,0,2.171-2.171V71.18C32.687,67.707,29.647,67.707,28.486,67.4ZM17.2,67.212V61.617h2.761a3.5,3.5,0,0,1,2.82,1.715l1.633,3.307a2.359,2.359,0,0,0,.4.572Z" transform="translate(0 -60.108)" fill="#9c9c9c"/>
  </g>
</svg>
