<svg id="radar" xmlns="http://www.w3.org/2000/svg" width="18" height="18" viewBox="0 0 18 18">
  <g id="Group_619" data-name="Group 619">
    <path id="Path_214" data-name="Path 214" d="M15.484,2.759,13.661,4.732A6.32,6.32,0,1,1,2.68,9a6.3,6.3,0,0,1,2-4.614l.721.77A5.215,5.215,0,0,0,3.734,9a5.266,5.266,0,1,0,9.208-3.49L11.856,6.687A3.675,3.675,0,1,1,6.208,6.61l.8.686A2.621,2.621,0,1,0,11.621,9a2.592,2.592,0,0,0-.491-1.528L9.877,8.828A.9.9,0,1,1,9.1,8.112l5.608-6.07A9,9,0,0,0,0,9a9,9,0,0,0,15.364,6.364,9,9,0,0,0,.12-12.6ZM9,2.523a.727.727,0,1,1-.727.727A.727.727,0,0,1,9,2.523Z" fill="#1b579f"/>
  </g>
</svg>
