<svg xmlns="http://www.w3.org/2000/svg" width="19" height="15.51" viewBox="0 0 19 15.51">
  <g id="sign-out-option" transform="translate(0 -41.115)">
    <g id="Group_234" data-name="Group 234" transform="translate(0 41.115)">
      <path id="Path_156" data-name="Path 156" d="M7.755,55.462a.315.315,0,0,1-.024-.164c.008-.044-.02-.081-.085-.109s-.1-.051-.1-.067-.046-.028-.139-.036l-.139-.012H3.49A1.866,1.866,0,0,1,2.12,54.5a1.867,1.867,0,0,1-.569-1.369V44.6a1.867,1.867,0,0,1,.569-1.369,1.867,1.867,0,0,1,1.369-.57H7.367a.366.366,0,0,0,.248-.079.4.4,0,0,0,.121-.236,2.039,2.039,0,0,0,.036-.285,3.015,3.015,0,0,0-.006-.321q-.012-.194-.012-.242a.393.393,0,0,0-.388-.388H3.49a3.362,3.362,0,0,0-2.466,1.024A3.361,3.361,0,0,0,0,44.6v8.531A3.361,3.361,0,0,0,1.024,55.6,3.361,3.361,0,0,0,3.49,56.625H7.367a.368.368,0,0,0,.248-.079.4.4,0,0,0,.121-.236,2.043,2.043,0,0,0,.036-.285,3.012,3.012,0,0,0-.006-.321Q7.755,55.51,7.755,55.462Z" transform="translate(0 -41.115)" fill="#1b579f"/>
      <path id="Path_157" data-name="Path 157" d="M123.75,57.068l-6.592-6.592a.776.776,0,0,0-1.321.545v3.49h-5.429a.786.786,0,0,0-.776.776V59.94a.786.786,0,0,0,.776.776h5.429v3.49a.771.771,0,0,0,1.321.545l6.592-6.592a.761.761,0,0,0,0-1.091Z" transform="translate(-104.98 -49.858)" fill="#1b579f"/>
    </g>
  </g>
</svg>
