<svg xmlns="http://www.w3.org/2000/svg" width="19" height="16.117" viewBox="0 0 19 16.117">
  <g id="users_-_team" data-name="users - team" transform="translate(0 -38.84)">
    <g id="Group_223" data-name="Group 223" transform="translate(14.788 47.541)">
      <g id="Group_222" data-name="Group 222" transform="translate(0 0)">
        <path id="Path_145" data-name="Path 145" d="M399.963,273.32h-1.469a3.822,3.822,0,0,1,.232,1.314v5.553a1.638,1.638,0,0,1-.094.549h2.429a1.648,1.648,0,0,0,1.646-1.646v-3.027A2.746,2.746,0,0,0,399.963,273.32Z" transform="translate(-398.494 -273.32)" fill="#1b579f"/>
      </g>
    </g>
    <g id="Group_225" data-name="Group 225" transform="translate(0 47.541)">
      <g id="Group_224" data-name="Group 224" transform="translate(0 0)">
        <path id="Path_146" data-name="Path 146" d="M3.981,274.635a3.822,3.822,0,0,1,.232-1.314H2.743A2.746,2.746,0,0,0,0,276.064v3.027a1.648,1.648,0,0,0,1.646,1.646H4.075a1.638,1.638,0,0,1-.094-.549Z" transform="translate(0 -273.321)" fill="#1b579f"/>
      </g>
    </g>
    <g id="Group_227" data-name="Group 227" transform="translate(5.078 46.113)">
      <g id="Group_226" data-name="Group 226" transform="translate(0 0)">
        <path id="Path_147" data-name="Path 147" d="M142.931,234.815h-3.359a2.746,2.746,0,0,0-2.743,2.743v5.553a.549.549,0,0,0,.549.549h7.748a.549.549,0,0,0,.549-.549v-5.553A2.746,2.746,0,0,0,142.931,234.815Z" transform="translate(-136.829 -234.815)" fill="#1b579f"/>
      </g>
    </g>
    <g id="Group_229" data-name="Group 229" transform="translate(6.202 38.84)">
      <g id="Group_228" data-name="Group 228" transform="translate(0 0)">
        <path id="Path_148" data-name="Path 148" d="M170.413,38.84a3.3,3.3,0,1,0,3.3,3.3A3.3,3.3,0,0,0,170.413,38.84Z" transform="translate(-167.114 -38.84)" fill="#1b579f"/>
      </g>
    </g>
    <g id="Group_231" data-name="Group 231" transform="translate(1.241 41.914)">
      <g id="Group_230" data-name="Group 230">
        <path id="Path_149" data-name="Path 149" d="M35.91,121.689a2.466,2.466,0,1,0,2.467,2.467A2.47,2.47,0,0,0,35.91,121.689Z" transform="translate(-33.443 -121.689)" fill="#1b579f"/>
      </g>
    </g>
    <g id="Group_233" data-name="Group 233" transform="translate(12.825 41.914)">
      <g id="Group_232" data-name="Group 232">
        <path id="Path_150" data-name="Path 150" d="M348.074,121.689a2.467,2.467,0,1,0,2.467,2.467A2.47,2.47,0,0,0,348.074,121.689Z" transform="translate(-345.607 -121.689)" fill="#1b579f"/>
      </g>
    </g>
  </g>
</svg>
